<svg id="vida_tres" data-name="vida tres" xmlns="http://www.w3.org/2000/svg" xmlns:xlink="http://www.w3.org/1999/xlink" viewBox="0 0 125 125"><defs><style>.cls-1{fill:none;}.cls-2{fill:#f5f5f5;}.cls-3{clip-path:url(#clip-path);}.cls-4{fill:#fff;}.cls-5,.cls-6{fill:#335598;}.cls-6{stroke:#335598;stroke-miterlimit:10;stroke-width:0.4px;}.cls-7{fill:#adc9e8;}</style><clipPath id="clip-path"><circle class="cls-1" cx="62.5" cy="62.5" r="62.5"/></clipPath></defs><title>Mesa de trabajo 2 copia 2</title><circle class="cls-2" cx="62.5" cy="62.5" r="62.5"/><g class="cls-3"><path class="cls-4" d="M24.26,134.68,63,139.87l37.26-5.19v-19s-1.44-11-11.41-14.21-15-4.92-15-4.92L52,96.48l-17.46,3.91s-10.32,5-10.32,16.36Z"/><path class="cls-4" d="M45.43,51.47S39,53.3,39.89,58.63s6.36,7.16,6.36,7.16Z"/><path class="cls-4" d="M77.47,52.87s8.24.18,7.25,7.64-8,6.54-8,6.54Z"/><path class="cls-4" d="M45.83,97.55,52,96.48s2.56,8.75,9.06,9.6L55,112.57S47.84,112.91,45.83,97.55Z"/><path class="cls-5" d="M101.28,134.68H99.66V121.52c0-12.2-1.43-17.58-15.81-21.77L62.5,93.61,41.15,99.75c-14.38,4.19-15.81,9.57-15.81,21.77v13.16H23.72V121.52c0-12.49,1.67-18.87,17-23.33L62.5,91.92l21.8,6.27c15.31,4.46,17,10.84,17,23.33Z"/><path class="cls-4" d="M63,107.45s10.91-4.87,10.93-10.89L74,66.86a3.75,3.75,0,0,0-3.63-3.92l-14.57.18a3.88,3.88,0,0,0-3.66,4L52,96.48c0,6,10.93,11,10.93,11Z"/><path class="cls-5" d="M63,108.26a.75.75,0,0,1-.33-.07C62.17,108,51.2,103,51.23,96.47l.11-29.35a4.71,4.71,0,0,1,4.47-4.81l14.57-.18a4.23,4.23,0,0,1,3,1.25,4.88,4.88,0,0,1,1.41,3.48l-.12,29.71c0,6.47-10.94,11.42-11.41,11.62A.75.75,0,0,1,63,108.26Zm7.46-44.51-14.6.18A3.07,3.07,0,0,0,53,67.12l-.12,29.36c0,4.37,7,8.6,10.12,10.08,1.77-.86,10.1-5.13,10.12-10l.12-29.71a3.3,3.3,0,0,0-.93-2.32A2.65,2.65,0,0,0,70.43,63.75Z"/><path class="cls-5" d="M72.25,114.53a.64.64,0,0,1-.51-.26l-5.55-6.94.68-1.51,5.52,6.89c8-5.15,6.51-14.61,6.5-14.71l1.36-.32c0,.11,1.76,11.13-7.69,16.76A.61.61,0,0,1,72.25,114.53Z"/><path class="cls-5" d="M53.82,114.39a.59.59,0,0,1-.31-.09c-9.47-5.62-7.72-16.64-7.7-16.75l1.36.31c-.07.4-1.49,9.59,6.51,14.71l5.19-6.49,1.54.42-6.08,7.63A.66.66,0,0,1,53.82,114.39Z"/><rect class="cls-4" x="59.47" y="106.99" width="7.11" height="4.39" rx="1.38"/><path class="cls-6" d="M63.83,113.85a.52.52,0,0,1,.52.44l3.9,17.52a.42.42,0,0,1-.09.39l-4.73,6.22a.53.53,0,0,1-.39.22.54.54,0,0,1-.4-.22L58,132.16a.46.46,0,0,1-.09-.4l3.9-17.52a.51.51,0,0,1,.52-.43h1.54m0-.84H62.25a1.38,1.38,0,0,0-1.36,1.14L57,131.63a1.38,1.38,0,0,0,.26,1.1L61.94,139a1.45,1.45,0,0,0,1.1.57,1.32,1.32,0,0,0,1.09-.57l4.69-6.26a1.61,1.61,0,0,0,.26-1.1l-3.9-17.52A1.37,1.37,0,0,0,63.83,113Z"/><path class="cls-6" d="M65.66,107.37a.53.53,0,0,1,.53.53v2.58a.53.53,0,0,1-.53.52H60.41a.52.52,0,0,1-.52-.52V107.9a.52.52,0,0,1,.52-.53h5.25m0-.87H60.41a1.38,1.38,0,0,0-1.4,1.4v2.58a1.38,1.38,0,0,0,1.4,1.4h5.25a1.39,1.39,0,0,0,1.41-1.4V107.9a1.41,1.41,0,0,0-1.41-1.4Z"/><polygon class="cls-7" points="79.61 43.4 82.82 42.38 82.43 53.17 79.63 52.33 79.61 43.4"/><path class="cls-7" d="M45.52,36.39S36.91,40.81,41,53.49l4.15-2.4Z"/><path class="cls-5" d="M79.54,67.41a5.31,5.31,0,0,1-3.71-1.6,8.26,8.26,0,0,1-2.24-5.88c0-4.15,2.73-7.56,6-7.6a5.52,5.52,0,0,1,3.77,1.6,8.26,8.26,0,0,1,2.24,5.88c0,4.16-2.72,7.56-6,7.6ZM79.69,54c-2.47,0-4.46,2.72-4.48,6A6.59,6.59,0,0,0,77,64.65a3.49,3.49,0,0,0,2.6,1.14c2.44,0,4.43-2.71,4.44-6a6.63,6.63,0,0,0-1.77-4.72A3.61,3.61,0,0,0,79.69,54Z"/><path class="cls-5" d="M45,66.17a5.25,5.25,0,0,1-3.71-1.6,8.25,8.25,0,0,1-2.25-5.88c0-4.15,2.73-7.56,6.05-7.6a5.51,5.51,0,0,1,3.76,1.61,8.23,8.23,0,0,1,2.25,5.88c0,4.15-2.73,7.55-6,7.59Zm.11-13.45c-2.44,0-4.43,2.71-4.44,6a6.58,6.58,0,0,0,1.76,4.72,3.64,3.64,0,0,0,2.6,1.13c2.44,0,4.43-2.71,4.44-6a6.58,6.58,0,0,0-1.76-4.72,3.62,3.62,0,0,0-2.56-1.13Z"/><path class="cls-4" d="M52.07,31.76A24.78,24.78,0,0,0,45.5,48.89l-.07,17.57c0,12,7.53,21.74,16.84,21.63s16.95-10,17-22l.07-25.41Z"/><path class="cls-5" d="M62.11,88.9a15.06,15.06,0,0,1-10.72-4.68c-4.33-4.29-6.79-10.77-6.77-17.76l.07-17.58a25.57,25.57,0,0,1,6.8-17.69l.35-.36,28.3,9.23-.07,26c0,12.47-8,22.72-17.8,22.83Zm-9.8-56.21a24.1,24.1,0,0,0-6,16.2l-.06,17.57c0,6.57,2.26,12.62,6.28,16.61a13.45,13.45,0,0,0,9.73,4.21c8.88-.1,16.15-9.62,16.19-21.22l.07-24.82Z"/><path class="cls-5" d="M52,57.27a1.9,1.9,0,1,0,1.91-2.22A2.1,2.1,0,0,0,52,57.27Z"/><path class="cls-5" d="M65.05,75.89a5.63,5.63,0,0,0,1.29-.76.84.84,0,0,0,.13-1.21.89.89,0,0,0-1.23-.11,4.41,4.41,0,0,1-5.47-.25.9.9,0,0,0-1.24.16.84.84,0,0,0,.13,1.21A6.26,6.26,0,0,0,65.05,75.89Z"/><path class="cls-5" d="M70.17,57.24A1.89,1.89,0,1,0,72.07,55,2.08,2.08,0,0,0,70.17,57.24Z"/><path class="cls-5" d="M61.8,69.68l2.56,0A2,2,0,0,0,65.93,69a1.87,1.87,0,0,0,.42-1.62l-2.6-12.21a.87.87,0,0,0-1-.67.85.85,0,0,0-.69,1l2.6,12.22L64.4,68,61.83,68a.86.86,0,1,0,0,1.72Z"/><path class="cls-5" d="M49.51,54.12a.81.81,0,0,1-.45-.21.78.78,0,0,1,0-1.1s3.82-3.84,8.52,0a.78.78,0,0,1,.1,1.09.77.77,0,0,1-1.09.11c-3.61-3-6.3-.26-6.42-.14A.75.75,0,0,1,49.51,54.12Z"/><path class="cls-5" d="M68.39,54a.81.81,0,0,1-.46-.21.78.78,0,0,1,0-1.1s3.82-3.84,8.52,0a.77.77,0,0,1,.1,1.09.76.76,0,0,1-1.08.11c-3.62-3-6.31-.26-6.42-.14A.8.8,0,0,1,68.39,54Z"/><path class="cls-7" d="M60.21,25.39a32,32,0,0,0-5.16,1c-19.14,5.64-11.34,32,16,21.36a21.66,21.66,0,0,0,6.09-3.22,11.86,11.86,0,0,1,7.08-1.71,5.4,5.4,0,0,0-2.85-2.24l-.22,0C85,35.9,86,30.89,84.64,24.9c-2.44,5.72-8.42-.19-14.17,5.4,2.62-2.13,5-5.18,3.76-9a4.79,4.79,0,0,1-3,2.83,22.67,22.67,0,0,1-5.29.77l-2.46.19Z"/><path class="cls-5" d="M59.1,51.07a16.83,16.83,0,0,1-11.16-3.66,11.57,11.57,0,0,1-4-11.35c1-4.89,5-8.68,10.89-10.42a32.55,32.55,0,0,1,5.29-1.06.81.81,0,0,1,.2,1.61,30.42,30.42,0,0,0-5,1c-5.3,1.56-8.85,4.91-9.76,9.19A10,10,0,0,0,49,46.18c4.75,4,12.68,4.35,21.73.84a20.53,20.53,0,0,0,5.88-3.1A13.26,13.26,0,0,1,82.34,42a4.27,4.27,0,0,0-1.25-.65,1,1,0,0,1-.67-.55.85.85,0,0,1,.07-.79,15.67,15.67,0,0,0,3.72-13c-1.47,1.51-3.49,1.47-5.45,1.41-2.23-.05-4.53-.11-6.85,1.67-.29.27-.6.54-.93.8a.81.81,0,0,1-1.07-1.21,9,9,0,0,1,1-.83c1.9-1.78,2.86-3.56,2.9-5.38a7.63,7.63,0,0,1-2.2,1.36,20,20,0,0,1-5.06.79l-2.94.23a.82.82,0,0,1-.87-.75.81.81,0,0,1,.75-.87L66.38,24a19.45,19.45,0,0,0,4.56-.67c1-.44,2.26-1.26,2.49-2.26a.83.83,0,0,1,.76-.63A.8.8,0,0,1,75,21a7.33,7.33,0,0,1-.67,6.13,15.58,15.58,0,0,1,4.47-.33c2.69.06,4.13,0,5.09-2.26a.81.81,0,0,1,1.54.14c1.38,6,.43,11-3,15.47a6.5,6.5,0,0,1,2.41,2.21.81.81,0,0,1,0,.86.79.79,0,0,1-.77.39,11.24,11.24,0,0,0-6.59,1.6,22.12,22.12,0,0,1-6.21,3.28A34.06,34.06,0,0,1,59.1,51.07Z"/><path class="cls-5" d="M41.74,54a.81.81,0,0,1-.76-.53,28.38,28.38,0,0,1-1.1-3.69c-.85-3.76-.64-6.89.61-9.33A9,9,0,0,1,43.64,37a.81.81,0,0,1,.88,1.36,7.53,7.53,0,0,0-2.59,2.87c-1.07,2.09-1.23,4.86-.46,8.23a26.82,26.82,0,0,0,1,3.49A.81.81,0,0,1,42,54,.69.69,0,0,1,41.74,54Z"/><path class="cls-5" d="M82,54.73a.73.73,0,0,1-.25,0,.81.81,0,0,1-.52-1A18.73,18.73,0,0,0,81.86,45a7.46,7.46,0,0,0-.52-2,.8.8,0,0,1,.4-1.07.81.81,0,0,1,1.08.4,9.54,9.54,0,0,1,.65,2.37,20.47,20.47,0,0,1-.74,9.42A.81.81,0,0,1,82,54.73Z"/></g></svg>